<svg width="20" height="21" viewBox="0 0 20 21" fill="none" xmlns="http://www.w3.org/2000/svg">
<path d="M12.0404 9.93616L8.6359 11.0478L5.67406 12.3551L4.84544 12.5738C4.63441 12.7745 4.41314 12.9778 4.17381 13.1837C3.91134 13.4101 3.66688 13.616 3.479 13.7653C3.27058 13.93 2.96178 14.2388 2.80482 14.4343C2.57064 14.7276 2.38537 15.039 2.30559 15.2783C2.16405 15.7107 2.23356 16.1481 2.50632 16.5522C2.85629 17.0668 3.55366 17.5917 4.3668 17.9494C4.78112 18.1322 5.47848 18.3663 6.00341 18.4975C6.87574 18.7188 8.56384 18.9582 9.49278 18.9942C9.6806 19.0019 9.93281 19.0019 9.94307 18.9942C9.96368 18.9813 10.1078 18.706 10.2751 18.3638C10.8464 17.198 11.2581 16.1044 11.4819 15.1703C11.6157 14.6042 11.7212 13.8502 11.7907 12.9573C11.8087 12.7077 11.8164 11.8714 11.801 11.5883C11.7778 11.1251 11.7366 10.7494 11.6724 10.3814C11.6621 10.3274 11.6594 10.2785 11.6646 10.2759C11.6749 10.2682 11.7058 10.2579 12.1252 10.1369L12.0403 9.93624V9.93618H12.0404V9.93616ZM11.2632 10.3917C11.2941 10.3917 11.3764 11.1816 11.397 11.6809C11.4022 11.7864 11.3996 11.8559 11.3945 11.8559C11.3739 11.8559 10.9596 11.6114 10.6637 11.4262C10.4063 11.264 9.91743 10.9398 9.84024 10.878C9.81445 10.86 9.81701 10.8575 10.0281 10.7854C10.3857 10.6644 11.2349 10.3917 11.2632 10.3917ZM9.52884 10.9629C9.55201 10.9629 9.61116 10.9964 9.7527 11.0839C10.2828 11.4158 11.0033 11.8173 11.3121 11.9511C11.4073 11.9923 11.4176 11.9768 11.1989 12.1261C10.7305 12.4452 10.1464 12.7591 9.431 13.0756C9.30493 13.1322 9.19944 13.176 9.19688 13.176C9.19175 13.176 9.20714 13.1117 9.22771 13.0345C9.40012 12.3937 9.49793 11.7452 9.5031 11.2254C9.50566 10.968 9.50566 10.968 9.52884 10.9604C9.52366 10.9629 9.52623 10.9629 9.52884 10.9629ZM9.17116 11.0993C9.18655 11.1147 9.17629 11.6912 9.15569 11.8481C9.10937 12.2238 9.03732 12.5738 8.91899 12.9676C8.89068 13.0627 8.8649 13.1425 8.85981 13.1476C8.84946 13.1605 8.49692 12.8157 8.38113 12.6819C8.1804 12.4503 8.02347 12.2187 7.90766 11.9922C7.84847 11.8764 7.75586 11.65 7.76356 11.6423C7.80472 11.614 9.16086 11.089 9.17116 11.0993ZM7.4882 11.7606C7.49076 11.7606 7.49332 11.7606 7.49593 11.7632C7.50106 11.7684 7.51911 11.8095 7.53455 11.8558C7.61686 12.0797 7.80211 12.4091 7.9617 12.6201C8.13668 12.8517 8.36573 13.0987 8.5561 13.2609C8.61789 13.3123 8.67447 13.3612 8.68217 13.3689C8.69764 13.3844 8.70278 13.3818 8.28332 13.5414C7.79702 13.7266 7.26689 13.9119 6.65958 14.1075C6.5145 14.1542 6.36956 14.2014 6.22476 14.249C6.20156 14.2567 6.20929 14.2439 6.2762 14.1384C6.57726 13.6674 7.03529 12.7436 7.29264 12.09C7.33639 11.9768 7.38013 11.8636 7.38787 11.8378C7.39817 11.8018 7.41101 11.7889 7.44444 11.7709C7.46246 11.7658 7.4805 11.7606 7.4882 11.7606ZM6.97359 11.9742C6.98129 11.9794 6.85005 12.2547 6.72138 12.5069C6.47176 12.9932 6.19899 13.4719 5.83359 14.0535C5.77184 14.1538 5.71267 14.2465 5.70494 14.2568C5.69208 14.2748 5.68691 14.2696 5.64575 14.1898C5.55826 14.0174 5.48618 13.7961 5.44759 13.5928C5.40898 13.3921 5.41671 13.0421 5.46048 12.826C5.49389 12.6665 5.49135 12.669 5.56854 12.6304C5.89792 12.4632 6.96329 11.9639 6.97359 11.9742ZM11.4125 12.1544V12.2624C11.4125 12.8363 11.3507 13.6237 11.2606 14.1976C11.2452 14.2979 11.2323 14.3802 11.2298 14.3829C11.2298 14.3829 11.1551 14.3623 11.0677 14.3365C10.6817 14.2156 10.2622 14.038 9.88393 13.8296C9.63428 13.6932 9.27148 13.4693 9.28179 13.459C9.28432 13.4565 9.39242 13.3998 9.51849 13.3329C10.0229 13.0705 10.5067 12.7874 10.9261 12.5069C11.0831 12.4014 11.3198 12.2316 11.3713 12.1853L11.4125 12.1544ZM5.03071 12.916C5.041 12.916 5.03842 12.9366 5.02299 13.0293C5.01269 13.0962 4.99983 13.2197 4.99472 13.3046C4.97408 13.6803 5.03588 13.9582 5.22115 14.3391C5.27262 14.4446 5.31382 14.5321 5.31121 14.5346C5.29318 14.5501 3.5897 15.0493 3.05442 15.196C2.89489 15.2397 2.75596 15.2783 2.74561 15.2809C2.72763 15.286 2.72504 15.2835 2.73276 15.2397C2.79194 14.8614 3.08016 14.3674 3.48158 13.9505C3.74921 13.6726 3.96281 13.5105 4.32821 13.302C4.59068 13.1528 4.99468 12.9289 5.02556 12.9186C5.02558 12.916 5.02815 12.916 5.03071 12.916ZM9.04506 13.634C9.04762 13.6314 9.10937 13.6649 9.18399 13.7086C9.73469 14.0277 10.5015 14.3237 11.1551 14.4755L11.2143 14.4883L11.132 14.5346C10.7897 14.7251 9.6652 15.1934 8.51496 15.6231C8.34767 15.6849 8.183 15.7467 8.15207 15.7595C8.1212 15.7724 8.09289 15.7801 8.09289 15.7775C8.09289 15.7749 8.13923 15.6849 8.19838 15.5742C8.52004 14.9721 8.8443 14.2387 9.00898 13.7292C9.02962 13.6803 9.04245 13.6366 9.04506 13.634ZM8.6359 13.7678C8.63851 13.7704 8.6179 13.8244 8.59215 13.8862C8.36829 14.4291 8.0749 15.021 7.69922 15.6849C7.60402 15.8548 7.52423 15.9912 7.52162 15.9912C7.5191 15.9912 7.44187 15.9448 7.34924 15.8882C6.80367 15.5537 6.31991 15.142 6.00342 14.7431L5.95709 14.6865L6.19123 14.6221C7.03014 14.3931 7.74291 14.1461 8.4506 13.8425C8.55098 13.8013 8.63334 13.7678 8.6359 13.7678ZM11.1783 14.6556C11.1809 14.7148 11.0496 15.2449 10.9415 15.6283C10.8515 15.9499 10.7743 16.2021 10.6328 16.6473C10.571 16.8429 10.517 17.005 10.5144 17.005C10.5118 17.005 10.4964 17.0024 10.481 16.9973C9.7167 16.8583 9.03219 16.6653 8.38887 16.408C8.20871 16.3359 7.9514 16.2201 7.93596 16.2073C7.93084 16.2021 8.08524 16.1301 8.2808 16.0451C9.45165 15.5331 10.6662 14.9515 11.0831 14.7019C11.132 14.671 11.1706 14.6556 11.1783 14.6556ZM5.30865 14.8563C5.3138 14.8615 4.98698 15.3324 4.52892 15.9731C4.36938 16.197 4.18411 16.4595 4.11465 16.5572C4.04516 16.655 3.93967 16.8094 3.88048 16.9021L3.77235 17.0694L3.65655 16.9716C3.52015 16.8583 3.28344 16.6164 3.17794 16.4826C2.95662 16.2073 2.8074 15.9165 2.74821 15.6515C2.71989 15.528 2.71989 15.4662 2.7456 15.4585C2.78419 15.4482 3.47126 15.2861 4.11462 15.1368C4.47231 15.0545 4.88658 14.9567 5.03584 14.9207C5.1851 14.8846 5.30608 14.8563 5.30865 14.8563ZM5.63801 14.9824L5.72033 15.075C6.09093 15.4894 6.46919 15.7956 6.92724 16.0632C7.0096 16.1095 7.07134 16.1507 7.06617 16.1533C7.0482 16.1662 5.47588 16.7245 4.74765 16.9767C4.33852 17.1208 4.00139 17.2366 3.99886 17.2366C3.99629 17.2366 3.97312 17.2212 3.94734 17.2031L3.90105 17.1697L3.97567 17.0616C4.21754 16.7116 4.52124 16.3282 5.18256 15.5305L5.63801 14.9824ZM7.69153 16.4517C7.69405 16.4492 7.80728 16.4903 7.94623 16.5419C8.2808 16.6679 8.5458 16.7477 8.90095 16.8378C9.33842 16.9484 9.97143 17.0565 10.3446 17.0874C10.4012 17.0925 10.4321 17.0977 10.4218 17.1054C10.4037 17.1157 10.0255 17.2418 9.74757 17.3293C9.30493 17.4682 7.95398 17.8671 6.85262 18.1836C6.64932 18.2428 6.47433 18.2917 6.46404 18.2942C6.43834 18.2994 6.35339 18.2762 6.35339 18.2659C6.35339 18.2608 6.41514 18.181 6.48978 18.0935C6.86031 17.6509 7.22832 17.1569 7.53455 16.6885C7.61944 16.5598 7.69153 16.4543 7.69153 16.4517ZM7.23859 16.4646C7.24115 16.4672 7.05847 16.7605 6.73941 17.2649C6.603 17.4785 6.45117 17.7204 6.39712 17.8053C6.34565 17.8876 6.26846 18.0163 6.22473 18.0884L6.15009 18.2196L6.1115 18.2093C6.01884 18.1836 5.36781 17.9545 5.19539 17.8851C4.9818 17.8001 4.7605 17.6972 4.59579 17.6097C4.38996 17.4991 4.13265 17.3344 4.15321 17.3292C4.15835 17.3267 4.5109 17.2314 4.93547 17.1157C6.06259 16.8094 6.68788 16.6319 7.09707 16.5032C7.17171 16.4801 7.23602 16.462 7.23859 16.4646ZM10.4423 17.216H10.4449C10.4552 17.2418 10.0384 18.3997 9.88647 18.7651C9.85306 18.8475 9.84024 18.8681 9.82219 18.8655C9.77844 18.8629 9.17374 18.778 8.80571 18.724C8.165 18.6262 7.08934 18.4383 6.81917 18.3766L6.75742 18.3637L7.14078 18.2762C7.96426 18.0909 8.36054 17.9906 8.76196 17.867C9.26892 17.7126 9.77074 17.5196 10.2776 17.2829C10.3574 17.2469 10.4243 17.2186 10.4423 17.216Z" fill="white"/>
<path d="M8.53041 2.00013C8.4738 1.99245 7.56025 2.32183 6.97099 2.56112C6.17582 2.88539 5.55827 3.1942 5.1774 3.46176C5.0359 3.56217 4.8583 3.7397 4.83004 3.80917C4.81975 3.8349 4.81458 3.86578 4.81458 3.89666L5.15941 4.22347L5.98027 4.48594L7.93341 4.83592L10.167 5.21935L10.1902 5.02635C10.1825 5.02635 10.1773 5.02379 10.1696 5.02379L9.87621 4.97745L9.81707 4.87196C9.51341 4.3367 9.17889 3.67278 8.98333 3.22503C8.83152 2.87763 8.6874 2.47624 8.60761 2.18801C8.56386 2.01303 8.55874 2.00274 8.53047 2.00018V2.00012H8.53041V2.00013ZM8.48919 2.13141H8.49183C8.49436 2.13395 8.50466 2.20605 8.51497 2.29092C8.55868 2.65123 8.63851 2.99857 8.76458 3.37429C8.85977 3.65736 8.85977 3.64193 8.74914 3.60846C8.48667 3.53643 7.31069 3.33313 6.45893 3.21477C6.32253 3.19674 6.20673 3.17874 6.20673 3.17618C6.19644 3.16589 6.82173 2.83905 7.09708 2.71042C7.44962 2.54826 8.41717 2.14426 8.48919 2.13141ZM6.00855 3.28423L6.10895 3.31765C6.65445 3.50295 8.02598 3.76544 8.78257 3.82719C8.86746 3.83492 8.93955 3.84265 8.94208 3.84265C8.94464 3.84522 8.87264 3.88382 8.77997 3.92754C8.41461 4.11025 8.01315 4.33414 7.73523 4.50655C7.65291 4.558 7.57825 4.5992 7.56799 4.5992C7.55769 4.5992 7.50367 4.5889 7.44705 4.58117L7.34413 4.56571L7.08683 4.31351C6.63392 3.87351 6.2788 3.53384 6.1424 3.40515L6.00855 3.28423ZM5.90566 3.36399L6.26848 3.8169C6.4666 4.06651 6.66733 4.31096 6.71111 4.36498C6.75482 4.41905 6.79087 4.46281 6.7883 4.46538C6.778 4.47309 6.26338 4.37271 5.99057 4.31098C5.71009 4.24663 5.59429 4.21576 5.42189 4.16174L5.28034 4.1154V4.07935C5.28291 3.90693 5.50166 3.64962 5.8722 3.38717L5.90566 3.36399ZM8.98844 3.98158C8.99875 3.98158 9.01158 4.00474 9.04246 4.07421C9.12995 4.2672 9.40277 4.78703 9.46961 4.88737C9.49026 4.92086 9.52623 4.92342 9.16344 4.86423C8.29111 4.72267 8.01059 4.6764 8.01059 4.67125C8.01059 4.66868 8.03633 4.65066 8.06978 4.63263C8.33999 4.48341 8.61274 4.29297 8.85465 4.08968C8.91384 4.04077 8.96788 3.99446 8.97814 3.98672C8.9807 3.98158 8.98588 3.97902 8.98844 3.98158Z" fill="white"/>
<path d="M4.84801 3.77313C4.84801 3.77313 4.79143 3.86323 4.84546 3.99705C4.87895 4.07937 4.97671 4.17971 5.08734 4.28266C5.08734 4.28266 6.23245 5.39946 6.37142 5.55903C7.00442 6.28982 7.27978 7.01035 7.30552 8.00365C7.32096 8.64182 7.19998 9.2028 6.89893 9.85385C6.36368 11.0221 5.23399 12.3114 3.49188 13.7421L3.74668 13.6572C3.91136 13.5336 4.13524 13.4024 4.66018 13.1142C5.87218 12.4503 7.23603 11.8404 8.90868 11.2125C11.3172 10.3067 15.2776 9.2465 17.5317 8.90172L17.7659 8.86567L17.7299 8.80906C17.5241 8.48996 17.3825 8.29184 17.2126 8.08083C16.7186 7.46838 16.119 6.97176 15.3856 6.56002C14.3769 5.99649 13.0722 5.55646 11.4202 5.22965C11.1088 5.16786 10.4243 5.04951 9.8685 4.96459C8.68991 4.78193 7.92822 4.65582 7.08935 4.51171C6.7883 4.46022 6.33793 4.38304 6.03943 4.31873C5.88504 4.28524 5.58914 4.21577 5.35754 4.13601C5.17227 4.06392 4.90463 3.99187 4.84801 3.77313ZM5.51196 4.41648C5.5145 4.41394 5.55566 4.42933 5.60974 4.44736C5.70752 4.48077 5.8336 4.51939 5.98289 4.56059C6.09583 4.59165 6.20906 4.62167 6.32255 4.65064C6.47695 4.68922 6.60559 4.72526 6.60816 4.72526C6.6262 4.74328 6.88611 5.57439 6.9736 5.89349C7.00701 6.01447 7.03279 6.11738 7.03022 6.11738C7.02757 6.11999 6.99931 6.07621 6.96587 6.01703C6.66478 5.48693 6.18873 4.94912 5.63803 4.51679C5.56601 4.46537 5.51196 4.41904 5.51196 4.41648ZM6.77801 4.76645C6.79089 4.76645 6.8475 4.77417 6.91694 4.7896C7.35441 4.88738 8.13928 5.03663 8.64105 5.12156C8.72598 5.13441 8.7929 5.14988 8.7929 5.155C8.7929 5.16017 8.76199 5.17815 8.72338 5.19876C8.6385 5.24249 8.29622 5.44576 8.18303 5.52298C7.89737 5.7134 7.64007 5.91926 7.45478 6.10453C7.38016 6.17917 7.3158 6.24092 7.3158 6.24092C7.3158 6.24092 7.30041 6.19719 7.28748 6.14311C7.1949 5.78543 7.00187 5.25532 6.82689 4.88221C6.79857 4.82305 6.7754 4.769 6.7754 4.76387C6.7754 4.76901 6.7754 4.76645 6.77801 4.76645ZM9.00646 5.19104C9.0219 5.19616 9.04764 5.28367 9.09909 5.47665C9.19432 5.8498 9.23807 6.26667 9.22263 6.65523C9.21746 6.76331 9.21233 6.86365 9.20716 6.87655L9.19946 6.90226L9.06565 6.85853C8.7903 6.77104 8.34257 6.63977 7.95917 6.53172C7.7404 6.47253 7.56289 6.41849 7.56289 6.41335C7.56289 6.39789 7.88199 6.07881 8.01836 5.95788C8.27821 5.72882 8.98329 5.1833 9.00646 5.19104ZM9.18402 5.21674C9.19176 5.20906 10.2494 5.39172 10.7306 5.48437C11.0883 5.55384 11.6081 5.66193 11.6389 5.67482C11.6544 5.67995 11.6003 5.71082 11.4279 5.78801C10.7486 6.09426 10.2442 6.36956 9.74245 6.70412C9.61121 6.79161 9.50054 6.86366 9.49798 6.86366C9.49542 6.86366 9.49284 6.78905 9.49284 6.69897C9.49284 6.21007 9.39505 5.71598 9.21488 5.29912C9.19688 5.25794 9.18145 5.21935 9.18402 5.21674ZM11.9194 5.75716C11.9272 5.76487 11.8937 5.97333 11.8628 6.09682C11.7702 6.48025 11.5206 7.04898 11.2144 7.5842C11.1603 7.67941 11.1114 7.75661 11.1062 7.75918C11.1011 7.76174 11.0317 7.72313 10.9519 7.67681C10.6534 7.50183 10.3137 7.33715 9.94314 7.18273C9.84024 7.139 9.75015 7.10295 9.74758 7.09785C9.72953 7.08239 10.5582 6.53428 10.9956 6.27181C11.343 6.06081 11.9091 5.74685 11.9194 5.75716ZM12.115 5.78802C12.1382 5.78802 12.6065 5.9167 12.8509 5.98876C13.4557 6.1689 14.1504 6.42364 14.6033 6.6295L14.7912 6.71445L14.66 6.7453C13.5535 7.00004 12.6065 7.29343 11.693 7.66397C11.6183 7.69485 11.5514 7.72059 11.5463 7.72059C11.5412 7.72059 11.5669 7.66141 11.6003 7.58933C11.8757 7.00521 12.0532 6.39534 12.0969 5.8755C12.0996 5.8266 12.1072 5.78802 12.115 5.78802ZM7.45221 6.85853C7.45991 6.85079 7.81762 6.93573 8.01061 6.98972C8.30396 7.0721 8.92667 7.28051 8.92667 7.29597C8.92667 7.29854 8.85722 7.35772 8.7749 7.4298C8.4378 7.71029 8.11354 8.00618 7.72495 8.38189C7.60915 8.49258 7.51139 8.58263 7.50626 8.58263C7.50109 8.58263 7.49856 8.56716 7.50109 8.54658C7.56027 8.11426 7.54744 7.55844 7.46509 6.9949C7.45734 6.92282 7.44964 6.86109 7.45221 6.85853ZM14.9688 6.86627C14.9739 6.87138 14.8041 7.139 14.696 7.29081C14.5416 7.51211 14.3151 7.80552 13.803 8.44883C13.5329 8.78847 13.2292 9.17192 13.1289 9.30058C13.0259 9.42923 12.941 9.53729 12.9384 9.53729C12.9358 9.53729 12.9024 9.491 12.8664 9.43439C12.5782 9.00206 12.2333 8.62379 11.8242 8.28412C11.747 8.21977 11.6621 8.15029 11.6338 8.12971C11.6055 8.10913 11.5823 8.08854 11.5823 8.08598C11.5823 8.07828 12.0197 7.89038 12.3517 7.7566C12.9333 7.51984 13.7258 7.23679 14.3203 7.05408C14.6316 6.95631 14.9636 6.86109 14.9688 6.86627ZM15.1669 6.91769C15.1772 6.91514 15.239 6.94602 15.3136 6.98972C15.9389 7.34741 16.5513 7.80805 17.0351 8.28155C17.1715 8.41538 17.5086 8.76534 17.5034 8.7679C17.5034 8.7679 17.3851 8.77819 17.2461 8.78847C16.1628 8.87085 14.7758 9.09983 13.4428 9.42148C13.3528 9.44205 13.273 9.46007 13.2678 9.46007C13.2627 9.46007 13.3631 9.35973 13.4892 9.2388C14.2714 8.48483 14.6291 8.00878 15.0511 7.15957C15.1103 7.03351 15.1618 6.92543 15.1669 6.91769C15.1643 6.91769 15.1643 6.91769 15.1669 6.91769ZM9.43619 7.50444C9.47224 7.51212 9.80677 7.66915 10.0589 7.7952C10.2905 7.91096 10.638 8.09628 10.656 8.11169C10.6585 8.11426 10.535 8.1786 10.3832 8.25323C9.8994 8.49512 9.48512 8.72412 9.05278 8.9866C8.92927 9.06124 8.82634 9.12303 8.82378 9.12303C8.81348 9.12303 8.81604 9.11268 8.88553 8.9866C9.11714 8.56462 9.30239 8.06025 9.40793 7.56873C9.41818 7.53014 9.42849 7.50444 9.43619 7.50444ZM9.10165 7.56617C9.10939 7.57391 9.0219 7.8904 8.96789 8.06281C8.86235 8.38963 8.6848 8.79877 8.51242 9.10757C8.47119 9.17959 8.40945 9.2851 8.376 9.34428L8.31168 9.44721L8.16758 9.30829C8.00033 9.14616 7.86392 9.0458 7.68897 8.95571C7.61945 8.91972 7.56543 8.88881 7.56543 8.8837C7.56543 8.86311 8.00546 8.46426 8.34256 8.17604C8.58443 7.9676 9.09395 7.55846 9.10165 7.56617ZM11.1475 8.40765L11.2736 8.48997C11.5617 8.67785 11.9014 8.92744 12.1613 9.14616C12.308 9.26708 12.591 9.52187 12.6477 9.58363L12.6785 9.61711L12.4701 9.67628C11.2915 10.0031 10.3806 10.2938 9.31783 10.685C9.19946 10.7287 9.09909 10.7648 9.09136 10.7648C9.07596 10.7648 9.06305 10.7776 9.32814 10.5331C10.0075 9.90789 10.6096 9.2182 11.0574 8.54657L11.1475 8.40765ZM10.6096 8.54146C10.6148 8.54658 10.2622 9.04322 10.0512 9.32372C9.79903 9.65825 9.35127 10.2192 9.04248 10.5846C8.91385 10.7364 8.80322 10.8625 8.79804 10.8651C8.7903 10.8677 8.78774 10.8291 8.78774 10.7699C8.78774 10.4585 8.70799 10.1265 8.56901 9.84351C8.50982 9.72514 8.49952 9.69683 8.51243 9.68398C8.56131 9.64022 9.31012 9.21305 9.78359 8.95831C10.1027 8.78848 10.6019 8.53631 10.6096 8.54146ZM7.35697 9.33918C7.36471 9.33918 7.4239 9.37003 7.49081 9.40608C7.6555 9.49613 7.80218 9.59649 7.93341 9.70459C7.93853 9.70972 7.87165 9.76378 7.78416 9.82807C7.53969 10.0031 7.16915 10.2836 6.95303 10.456C6.72652 10.6361 6.71886 10.6413 6.74456 10.6027C6.91441 10.3428 6.9993 10.1961 7.0894 10.0082C7.16915 9.841 7.24891 9.64284 7.30552 9.47042C7.3261 9.39579 7.35185 9.33918 7.35697 9.33918ZM8.22421 10.0185C8.23703 10.016 8.25252 10.0391 8.32196 10.142C8.46864 10.3607 8.58187 10.6541 8.61022 10.8909L8.61531 10.9424L8.26282 11.0787C7.63232 11.3232 7.0508 11.5651 6.65703 11.7452C6.54641 11.7967 6.35341 11.8893 6.22734 11.9511C6.10123 12.0154 5.9983 12.0643 5.9983 12.0617C5.9983 12.0592 6.07806 12 6.17584 11.9279C6.9453 11.3695 7.61176 10.757 8.11096 10.1446C8.16502 10.0803 8.21393 10.0211 8.21903 10.0185L8.22421 10.0185ZM7.82535 10.1163C7.83565 10.1266 7.5423 10.4585 7.34158 10.6618C6.84494 11.1688 6.35343 11.5651 5.74354 11.9511C5.66635 12 5.59689 12.0437 5.58915 12.0489C5.57113 12.0592 5.59428 12.0334 5.86191 11.7426C6.03177 11.5599 6.16041 11.4055 6.30709 11.2151C6.40487 11.0891 6.4229 11.071 6.56445 10.9706C6.94273 10.6979 7.81505 10.106 7.82535 10.1163Z" fill="white"/>
</svg>
